<svg width="127" height="44" viewBox="0 0 127 44" fill="none" xmlns="http://www.w3.org/2000/svg">
<path opacity="0.7" d="M5.43981 28V19.796H8.39381V18.2H0.62381V19.796H3.59181V28H5.43981ZM16.3104 28L12.5304 18.2H10.7944L7.02837 28H8.93237L9.77237 25.718H13.5524L14.3924 28H16.3104ZM11.6764 20.566L12.9924 24.15H10.3604L11.6764 20.566ZM25.4376 28L21.4756 22.092L25.0736 18.2H22.7636L18.8296 22.47V18.2H16.9676V28H18.8296V24.948L20.2016 23.464L23.1416 28H25.4376ZM32.8676 28V26.39H28.0376V23.772H31.7896V22.176H28.0376V19.796H32.7136V18.2H26.1896V28H32.8676ZM40.8172 28V19.796H43.7712V18.2H36.0012V19.796H38.9692V28H40.8172ZM51.0725 28V26.39H46.2425V23.772H49.9945V22.176H46.2425V19.796H50.9185V18.2H44.3945V28H51.0725ZM55.4556 28.112C57.6116 28.112 59.1096 27.006 59.1096 25.186C59.1096 21.364 53.7756 22.988 53.7756 20.818C53.7756 20.132 54.3776 19.684 55.3436 19.684C56.3796 19.684 57.0516 20.258 57.1356 21.112H58.8996C58.8156 19.278 57.4156 18.088 55.3436 18.088C53.3556 18.088 51.9696 19.208 51.9696 20.818C51.9696 24.57 57.2336 23.114 57.2336 25.214C57.2336 26.082 56.5056 26.502 55.4556 26.502C54.2796 26.502 53.5516 25.802 53.4536 24.71H51.6756C51.7736 26.768 53.2296 28.112 55.4556 28.112ZM63.9166 28V19.796H66.8706V18.2H59.1006V19.796H62.0686V28H63.9166Z" fill="#1A1B1C"/>
<path d="M126.293 22L105 43.293L83.707 22L105 0.707031L126.293 22Z" stroke="#1A1B1C"/>
<path d="M111.143 22L101.714 27.4436V16.5564L111.143 22Z" fill="#1A1B1C"/>
</svg>
